<mxfile host="Electron" modified="2024-11-06T12:42:01.340Z" agent="Mozilla/5.0 (Windows NT 10.0; Win64; x64) AppleWebKit/537.36 (KHTML, like Gecko) draw.io/24.2.5 Chrome/120.0.6099.109 Electron/28.1.0 Safari/537.36" etag="HVeJklHV8TH6tTpFPT6P" version="24.2.5" type="device">
  <diagram name="페이지-1" id="x4xTBhOmevJyrD0w78fz">
    <mxGraphModel dx="1194" dy="657" grid="1" gridSize="10" guides="1" tooltips="1" connect="1" arrows="1" fold="1" page="1" pageScale="1" pageWidth="827" pageHeight="1169" math="0" shadow="0">
      <root>
        <mxCell id="0" />
        <mxCell id="1" parent="0" />
        <mxCell id="s47Vnk6pcMLUjJf5z0NG-16" style="edgeStyle=orthogonalEdgeStyle;rounded=0;orthogonalLoop=1;jettySize=auto;html=1;entryX=0.5;entryY=1;entryDx=0;entryDy=0;" edge="1" parent="1" source="s47Vnk6pcMLUjJf5z0NG-1" target="s47Vnk6pcMLUjJf5z0NG-2">
          <mxGeometry relative="1" as="geometry">
            <Array as="points">
              <mxPoint x="400" y="1040" />
              <mxPoint x="240" y="1040" />
            </Array>
          </mxGeometry>
        </mxCell>
        <mxCell id="s47Vnk6pcMLUjJf5z0NG-17" style="edgeStyle=orthogonalEdgeStyle;rounded=0;orthogonalLoop=1;jettySize=auto;html=1;exitX=0.5;exitY=0;exitDx=0;exitDy=0;entryX=0.5;entryY=1;entryDx=0;entryDy=0;" edge="1" parent="1" source="s47Vnk6pcMLUjJf5z0NG-1" target="s47Vnk6pcMLUjJf5z0NG-3">
          <mxGeometry relative="1" as="geometry">
            <Array as="points">
              <mxPoint x="400" y="1040" />
              <mxPoint x="560" y="1040" />
            </Array>
          </mxGeometry>
        </mxCell>
        <mxCell id="s47Vnk6pcMLUjJf5z0NG-1" value="136" style="rounded=0;whiteSpace=wrap;html=1;" vertex="1" parent="1">
          <mxGeometry x="370" y="1050" width="60" height="60" as="geometry" />
        </mxCell>
        <mxCell id="s47Vnk6pcMLUjJf5z0NG-2" value="36" style="rounded=0;whiteSpace=wrap;html=1;" vertex="1" parent="1">
          <mxGeometry x="210" y="970" width="60" height="60" as="geometry" />
        </mxCell>
        <mxCell id="s47Vnk6pcMLUjJf5z0NG-18" style="edgeStyle=orthogonalEdgeStyle;rounded=0;orthogonalLoop=1;jettySize=auto;html=1;entryX=0.5;entryY=1;entryDx=0;entryDy=0;" edge="1" parent="1" source="s47Vnk6pcMLUjJf5z0NG-3" target="s47Vnk6pcMLUjJf5z0NG-6">
          <mxGeometry relative="1" as="geometry">
            <Array as="points">
              <mxPoint x="560" y="960" />
              <mxPoint x="640" y="960" />
            </Array>
          </mxGeometry>
        </mxCell>
        <mxCell id="s47Vnk6pcMLUjJf5z0NG-19" style="edgeStyle=orthogonalEdgeStyle;rounded=0;orthogonalLoop=1;jettySize=auto;html=1;exitX=0.5;exitY=0;exitDx=0;exitDy=0;entryX=0.5;entryY=1;entryDx=0;entryDy=0;" edge="1" parent="1" source="s47Vnk6pcMLUjJf5z0NG-3" target="s47Vnk6pcMLUjJf5z0NG-7">
          <mxGeometry relative="1" as="geometry">
            <Array as="points">
              <mxPoint x="560" y="960" />
              <mxPoint x="480" y="960" />
            </Array>
          </mxGeometry>
        </mxCell>
        <mxCell id="s47Vnk6pcMLUjJf5z0NG-3" value="100" style="rounded=0;whiteSpace=wrap;html=1;" vertex="1" parent="1">
          <mxGeometry x="530" y="970" width="60" height="60" as="geometry" />
        </mxCell>
        <mxCell id="s47Vnk6pcMLUjJf5z0NG-27" style="edgeStyle=orthogonalEdgeStyle;rounded=0;orthogonalLoop=1;jettySize=auto;html=1;exitX=0.5;exitY=0;exitDx=0;exitDy=0;entryX=0.5;entryY=1;entryDx=0;entryDy=0;" edge="1" parent="1" source="s47Vnk6pcMLUjJf5z0NG-4" target="s47Vnk6pcMLUjJf5z0NG-9">
          <mxGeometry relative="1" as="geometry">
            <Array as="points">
              <mxPoint x="160" y="880" />
              <mxPoint x="200" y="880" />
            </Array>
          </mxGeometry>
        </mxCell>
        <mxCell id="s47Vnk6pcMLUjJf5z0NG-28" style="edgeStyle=orthogonalEdgeStyle;rounded=0;orthogonalLoop=1;jettySize=auto;html=1;exitX=0.5;exitY=0;exitDx=0;exitDy=0;entryX=0.5;entryY=1;entryDx=0;entryDy=0;" edge="1" parent="1" source="s47Vnk6pcMLUjJf5z0NG-4" target="s47Vnk6pcMLUjJf5z0NG-8">
          <mxGeometry relative="1" as="geometry">
            <Array as="points">
              <mxPoint x="160" y="880" />
              <mxPoint x="120" y="880" />
            </Array>
          </mxGeometry>
        </mxCell>
        <mxCell id="s47Vnk6pcMLUjJf5z0NG-4" value="10" style="rounded=0;whiteSpace=wrap;html=1;" vertex="1" parent="1">
          <mxGeometry x="130" y="890" width="60" height="60" as="geometry" />
        </mxCell>
        <mxCell id="s47Vnk6pcMLUjJf5z0NG-25" style="edgeStyle=orthogonalEdgeStyle;rounded=0;orthogonalLoop=1;jettySize=auto;html=1;exitX=0.5;exitY=0;exitDx=0;exitDy=0;entryX=0.5;entryY=1;entryDx=0;entryDy=0;" edge="1" parent="1" source="s47Vnk6pcMLUjJf5z0NG-5" target="s47Vnk6pcMLUjJf5z0NG-11">
          <mxGeometry relative="1" as="geometry">
            <Array as="points">
              <mxPoint x="320" y="880" />
              <mxPoint x="360" y="880" />
            </Array>
          </mxGeometry>
        </mxCell>
        <mxCell id="s47Vnk6pcMLUjJf5z0NG-26" style="edgeStyle=orthogonalEdgeStyle;rounded=0;orthogonalLoop=1;jettySize=auto;html=1;exitX=0.5;exitY=0;exitDx=0;exitDy=0;entryX=0.5;entryY=1;entryDx=0;entryDy=0;" edge="1" parent="1" source="s47Vnk6pcMLUjJf5z0NG-5" target="s47Vnk6pcMLUjJf5z0NG-10">
          <mxGeometry relative="1" as="geometry">
            <Array as="points">
              <mxPoint x="320" y="880" />
              <mxPoint x="280" y="880" />
            </Array>
          </mxGeometry>
        </mxCell>
        <mxCell id="s47Vnk6pcMLUjJf5z0NG-5" value="26" style="rounded=0;whiteSpace=wrap;html=1;" vertex="1" parent="1">
          <mxGeometry x="290" y="890" width="60" height="60" as="geometry" />
        </mxCell>
        <mxCell id="s47Vnk6pcMLUjJf5z0NG-20" style="edgeStyle=orthogonalEdgeStyle;rounded=0;orthogonalLoop=1;jettySize=auto;html=1;exitX=0.5;exitY=0;exitDx=0;exitDy=0;entryX=0.5;entryY=1;entryDx=0;entryDy=0;" edge="1" parent="1" source="s47Vnk6pcMLUjJf5z0NG-6" target="s47Vnk6pcMLUjJf5z0NG-15">
          <mxGeometry relative="1" as="geometry">
            <Array as="points">
              <mxPoint x="640" y="880" />
              <mxPoint x="680" y="880" />
            </Array>
          </mxGeometry>
        </mxCell>
        <mxCell id="s47Vnk6pcMLUjJf5z0NG-22" style="edgeStyle=orthogonalEdgeStyle;rounded=0;orthogonalLoop=1;jettySize=auto;html=1;exitX=0.5;exitY=0;exitDx=0;exitDy=0;entryX=0.5;entryY=1;entryDx=0;entryDy=0;" edge="1" parent="1" source="s47Vnk6pcMLUjJf5z0NG-6" target="s47Vnk6pcMLUjJf5z0NG-14">
          <mxGeometry relative="1" as="geometry">
            <mxPoint x="580" y="910" as="targetPoint" />
            <Array as="points">
              <mxPoint x="640" y="880" />
              <mxPoint x="600" y="880" />
            </Array>
          </mxGeometry>
        </mxCell>
        <mxCell id="s47Vnk6pcMLUjJf5z0NG-6" value="58" style="rounded=0;whiteSpace=wrap;html=1;" vertex="1" parent="1">
          <mxGeometry x="610" y="890" width="60" height="60" as="geometry" />
        </mxCell>
        <mxCell id="s47Vnk6pcMLUjJf5z0NG-23" style="edgeStyle=orthogonalEdgeStyle;rounded=0;orthogonalLoop=1;jettySize=auto;html=1;entryX=0.5;entryY=1;entryDx=0;entryDy=0;" edge="1" parent="1" source="s47Vnk6pcMLUjJf5z0NG-7" target="s47Vnk6pcMLUjJf5z0NG-13">
          <mxGeometry relative="1" as="geometry">
            <Array as="points">
              <mxPoint x="480" y="880" />
              <mxPoint x="520" y="880" />
            </Array>
          </mxGeometry>
        </mxCell>
        <mxCell id="s47Vnk6pcMLUjJf5z0NG-24" style="edgeStyle=orthogonalEdgeStyle;rounded=0;orthogonalLoop=1;jettySize=auto;html=1;exitX=0.5;exitY=0;exitDx=0;exitDy=0;entryX=0.5;entryY=1;entryDx=0;entryDy=0;" edge="1" parent="1" source="s47Vnk6pcMLUjJf5z0NG-7" target="s47Vnk6pcMLUjJf5z0NG-12">
          <mxGeometry relative="1" as="geometry">
            <Array as="points">
              <mxPoint x="480" y="880" />
              <mxPoint x="440" y="880" />
            </Array>
          </mxGeometry>
        </mxCell>
        <mxCell id="s47Vnk6pcMLUjJf5z0NG-7" value="42" style="rounded=0;whiteSpace=wrap;html=1;" vertex="1" parent="1">
          <mxGeometry x="450" y="890" width="60" height="60" as="geometry" />
        </mxCell>
        <mxCell id="s47Vnk6pcMLUjJf5z0NG-47" style="edgeStyle=orthogonalEdgeStyle;rounded=0;orthogonalLoop=1;jettySize=auto;html=1;entryX=0.5;entryY=1;entryDx=0;entryDy=0;" edge="1" parent="1" source="s47Vnk6pcMLUjJf5z0NG-8" target="s47Vnk6pcMLUjJf5z0NG-29">
          <mxGeometry relative="1" as="geometry" />
        </mxCell>
        <mxCell id="s47Vnk6pcMLUjJf5z0NG-48" style="edgeStyle=orthogonalEdgeStyle;rounded=0;orthogonalLoop=1;jettySize=auto;html=1;exitX=0.5;exitY=0;exitDx=0;exitDy=0;entryX=0.5;entryY=1;entryDx=0;entryDy=0;" edge="1" parent="1" source="s47Vnk6pcMLUjJf5z0NG-8" target="s47Vnk6pcMLUjJf5z0NG-30">
          <mxGeometry relative="1" as="geometry" />
        </mxCell>
        <mxCell id="s47Vnk6pcMLUjJf5z0NG-8" value="3" style="rounded=0;whiteSpace=wrap;html=1;" vertex="1" parent="1">
          <mxGeometry x="90" y="810" width="60" height="60" as="geometry" />
        </mxCell>
        <mxCell id="s47Vnk6pcMLUjJf5z0NG-57" style="edgeStyle=orthogonalEdgeStyle;rounded=0;orthogonalLoop=1;jettySize=auto;html=1;exitX=0.5;exitY=0;exitDx=0;exitDy=0;entryX=0.5;entryY=1;entryDx=0;entryDy=0;" edge="1" parent="1" source="s47Vnk6pcMLUjJf5z0NG-9" target="s47Vnk6pcMLUjJf5z0NG-32">
          <mxGeometry relative="1" as="geometry" />
        </mxCell>
        <mxCell id="s47Vnk6pcMLUjJf5z0NG-58" style="edgeStyle=orthogonalEdgeStyle;rounded=0;orthogonalLoop=1;jettySize=auto;html=1;exitX=0.5;exitY=0;exitDx=0;exitDy=0;entryX=0.5;entryY=1;entryDx=0;entryDy=0;" edge="1" parent="1" source="s47Vnk6pcMLUjJf5z0NG-9" target="s47Vnk6pcMLUjJf5z0NG-33">
          <mxGeometry relative="1" as="geometry" />
        </mxCell>
        <mxCell id="s47Vnk6pcMLUjJf5z0NG-9" value="7" style="rounded=0;whiteSpace=wrap;html=1;" vertex="1" parent="1">
          <mxGeometry x="170" y="810" width="60" height="60" as="geometry" />
        </mxCell>
        <mxCell id="s47Vnk6pcMLUjJf5z0NG-59" style="edgeStyle=orthogonalEdgeStyle;rounded=0;orthogonalLoop=1;jettySize=auto;html=1;exitX=0.5;exitY=0;exitDx=0;exitDy=0;entryX=0.5;entryY=1;entryDx=0;entryDy=0;" edge="1" parent="1" source="s47Vnk6pcMLUjJf5z0NG-10" target="s47Vnk6pcMLUjJf5z0NG-34">
          <mxGeometry relative="1" as="geometry" />
        </mxCell>
        <mxCell id="s47Vnk6pcMLUjJf5z0NG-60" style="edgeStyle=orthogonalEdgeStyle;rounded=0;orthogonalLoop=1;jettySize=auto;html=1;exitX=0.5;exitY=0;exitDx=0;exitDy=0;entryX=0.5;entryY=1;entryDx=0;entryDy=0;" edge="1" parent="1" source="s47Vnk6pcMLUjJf5z0NG-10" target="s47Vnk6pcMLUjJf5z0NG-35">
          <mxGeometry relative="1" as="geometry" />
        </mxCell>
        <mxCell id="s47Vnk6pcMLUjJf5z0NG-10" value="11" style="rounded=0;whiteSpace=wrap;html=1;" vertex="1" parent="1">
          <mxGeometry x="250" y="810" width="60" height="60" as="geometry" />
        </mxCell>
        <mxCell id="s47Vnk6pcMLUjJf5z0NG-61" value="" style="edgeStyle=orthogonalEdgeStyle;rounded=0;orthogonalLoop=1;jettySize=auto;html=1;" edge="1" parent="1" source="s47Vnk6pcMLUjJf5z0NG-11" target="s47Vnk6pcMLUjJf5z0NG-37">
          <mxGeometry relative="1" as="geometry" />
        </mxCell>
        <mxCell id="s47Vnk6pcMLUjJf5z0NG-63" style="edgeStyle=orthogonalEdgeStyle;rounded=0;orthogonalLoop=1;jettySize=auto;html=1;exitX=0.5;exitY=0;exitDx=0;exitDy=0;entryX=0.5;entryY=1;entryDx=0;entryDy=0;" edge="1" parent="1" source="s47Vnk6pcMLUjJf5z0NG-11" target="s47Vnk6pcMLUjJf5z0NG-36">
          <mxGeometry relative="1" as="geometry" />
        </mxCell>
        <mxCell id="s47Vnk6pcMLUjJf5z0NG-11" value="15" style="rounded=0;whiteSpace=wrap;html=1;" vertex="1" parent="1">
          <mxGeometry x="330" y="810" width="60" height="60" as="geometry" />
        </mxCell>
        <mxCell id="s47Vnk6pcMLUjJf5z0NG-64" value="" style="edgeStyle=orthogonalEdgeStyle;rounded=0;orthogonalLoop=1;jettySize=auto;html=1;" edge="1" parent="1" source="s47Vnk6pcMLUjJf5z0NG-12" target="s47Vnk6pcMLUjJf5z0NG-39">
          <mxGeometry relative="1" as="geometry" />
        </mxCell>
        <mxCell id="s47Vnk6pcMLUjJf5z0NG-68" style="edgeStyle=orthogonalEdgeStyle;rounded=0;orthogonalLoop=1;jettySize=auto;html=1;exitX=0.5;exitY=0;exitDx=0;exitDy=0;entryX=0.5;entryY=1;entryDx=0;entryDy=0;" edge="1" parent="1" source="s47Vnk6pcMLUjJf5z0NG-12" target="s47Vnk6pcMLUjJf5z0NG-38">
          <mxGeometry relative="1" as="geometry" />
        </mxCell>
        <mxCell id="s47Vnk6pcMLUjJf5z0NG-12" value="19" style="rounded=0;whiteSpace=wrap;html=1;" vertex="1" parent="1">
          <mxGeometry x="410" y="810" width="60" height="60" as="geometry" />
        </mxCell>
        <mxCell id="s47Vnk6pcMLUjJf5z0NG-65" value="" style="edgeStyle=orthogonalEdgeStyle;rounded=0;orthogonalLoop=1;jettySize=auto;html=1;" edge="1" parent="1" source="s47Vnk6pcMLUjJf5z0NG-13" target="s47Vnk6pcMLUjJf5z0NG-41">
          <mxGeometry relative="1" as="geometry" />
        </mxCell>
        <mxCell id="s47Vnk6pcMLUjJf5z0NG-69" style="edgeStyle=orthogonalEdgeStyle;rounded=0;orthogonalLoop=1;jettySize=auto;html=1;exitX=0.5;exitY=0;exitDx=0;exitDy=0;entryX=0.5;entryY=1;entryDx=0;entryDy=0;" edge="1" parent="1" source="s47Vnk6pcMLUjJf5z0NG-13" target="s47Vnk6pcMLUjJf5z0NG-40">
          <mxGeometry relative="1" as="geometry" />
        </mxCell>
        <mxCell id="s47Vnk6pcMLUjJf5z0NG-13" value="23" style="rounded=0;whiteSpace=wrap;html=1;" vertex="1" parent="1">
          <mxGeometry x="490" y="810" width="60" height="60" as="geometry" />
        </mxCell>
        <mxCell id="s47Vnk6pcMLUjJf5z0NG-66" value="" style="edgeStyle=orthogonalEdgeStyle;rounded=0;orthogonalLoop=1;jettySize=auto;html=1;" edge="1" parent="1" source="s47Vnk6pcMLUjJf5z0NG-14" target="s47Vnk6pcMLUjJf5z0NG-43">
          <mxGeometry relative="1" as="geometry" />
        </mxCell>
        <mxCell id="s47Vnk6pcMLUjJf5z0NG-70" style="edgeStyle=orthogonalEdgeStyle;rounded=0;orthogonalLoop=1;jettySize=auto;html=1;exitX=0.5;exitY=0;exitDx=0;exitDy=0;entryX=0.5;entryY=1;entryDx=0;entryDy=0;" edge="1" parent="1" source="s47Vnk6pcMLUjJf5z0NG-14" target="s47Vnk6pcMLUjJf5z0NG-42">
          <mxGeometry relative="1" as="geometry" />
        </mxCell>
        <mxCell id="s47Vnk6pcMLUjJf5z0NG-14" value="27" style="rounded=0;whiteSpace=wrap;html=1;" vertex="1" parent="1">
          <mxGeometry x="570" y="810" width="60" height="60" as="geometry" />
        </mxCell>
        <mxCell id="s47Vnk6pcMLUjJf5z0NG-67" value="" style="edgeStyle=orthogonalEdgeStyle;rounded=0;orthogonalLoop=1;jettySize=auto;html=1;" edge="1" parent="1" source="s47Vnk6pcMLUjJf5z0NG-15" target="s47Vnk6pcMLUjJf5z0NG-45">
          <mxGeometry relative="1" as="geometry" />
        </mxCell>
        <mxCell id="s47Vnk6pcMLUjJf5z0NG-71" style="edgeStyle=orthogonalEdgeStyle;rounded=0;orthogonalLoop=1;jettySize=auto;html=1;exitX=0.5;exitY=0;exitDx=0;exitDy=0;entryX=0.5;entryY=1;entryDx=0;entryDy=0;" edge="1" parent="1" source="s47Vnk6pcMLUjJf5z0NG-15" target="s47Vnk6pcMLUjJf5z0NG-44">
          <mxGeometry relative="1" as="geometry" />
        </mxCell>
        <mxCell id="s47Vnk6pcMLUjJf5z0NG-15" value="31" style="rounded=0;whiteSpace=wrap;html=1;" vertex="1" parent="1">
          <mxGeometry x="650" y="810" width="60" height="60" as="geometry" />
        </mxCell>
        <mxCell id="s47Vnk6pcMLUjJf5z0NG-29" value="1" style="rounded=0;whiteSpace=wrap;html=1;" vertex="1" parent="1">
          <mxGeometry x="90" y="690" width="30" height="60" as="geometry" />
        </mxCell>
        <mxCell id="s47Vnk6pcMLUjJf5z0NG-30" value="2" style="rounded=0;whiteSpace=wrap;html=1;" vertex="1" parent="1">
          <mxGeometry x="120" y="690" width="30" height="60" as="geometry" />
        </mxCell>
        <mxCell id="s47Vnk6pcMLUjJf5z0NG-32" value="3" style="rounded=0;whiteSpace=wrap;html=1;" vertex="1" parent="1">
          <mxGeometry x="170" y="690" width="30" height="60" as="geometry" />
        </mxCell>
        <mxCell id="s47Vnk6pcMLUjJf5z0NG-33" value="4" style="rounded=0;whiteSpace=wrap;html=1;" vertex="1" parent="1">
          <mxGeometry x="200" y="690" width="30" height="60" as="geometry" />
        </mxCell>
        <mxCell id="s47Vnk6pcMLUjJf5z0NG-34" value="5" style="rounded=0;whiteSpace=wrap;html=1;" vertex="1" parent="1">
          <mxGeometry x="250" y="690" width="30" height="60" as="geometry" />
        </mxCell>
        <mxCell id="s47Vnk6pcMLUjJf5z0NG-35" value="6" style="rounded=0;whiteSpace=wrap;html=1;" vertex="1" parent="1">
          <mxGeometry x="280" y="690" width="30" height="60" as="geometry" />
        </mxCell>
        <mxCell id="s47Vnk6pcMLUjJf5z0NG-36" value="7" style="rounded=0;whiteSpace=wrap;html=1;" vertex="1" parent="1">
          <mxGeometry x="330" y="690" width="30" height="60" as="geometry" />
        </mxCell>
        <mxCell id="s47Vnk6pcMLUjJf5z0NG-37" value="8" style="rounded=0;whiteSpace=wrap;html=1;" vertex="1" parent="1">
          <mxGeometry x="360" y="690" width="30" height="60" as="geometry" />
        </mxCell>
        <mxCell id="s47Vnk6pcMLUjJf5z0NG-38" value="9" style="rounded=0;whiteSpace=wrap;html=1;" vertex="1" parent="1">
          <mxGeometry x="410" y="690" width="30" height="60" as="geometry" />
        </mxCell>
        <mxCell id="s47Vnk6pcMLUjJf5z0NG-39" value="10" style="rounded=0;whiteSpace=wrap;html=1;" vertex="1" parent="1">
          <mxGeometry x="440" y="690" width="30" height="60" as="geometry" />
        </mxCell>
        <mxCell id="s47Vnk6pcMLUjJf5z0NG-40" value="11" style="rounded=0;whiteSpace=wrap;html=1;" vertex="1" parent="1">
          <mxGeometry x="490" y="690" width="30" height="60" as="geometry" />
        </mxCell>
        <mxCell id="s47Vnk6pcMLUjJf5z0NG-41" value="12" style="rounded=0;whiteSpace=wrap;html=1;" vertex="1" parent="1">
          <mxGeometry x="520" y="690" width="30" height="60" as="geometry" />
        </mxCell>
        <mxCell id="s47Vnk6pcMLUjJf5z0NG-42" value="13" style="rounded=0;whiteSpace=wrap;html=1;" vertex="1" parent="1">
          <mxGeometry x="570" y="690" width="30" height="60" as="geometry" />
        </mxCell>
        <mxCell id="s47Vnk6pcMLUjJf5z0NG-43" value="14" style="rounded=0;whiteSpace=wrap;html=1;" vertex="1" parent="1">
          <mxGeometry x="600" y="690" width="30" height="60" as="geometry" />
        </mxCell>
        <mxCell id="s47Vnk6pcMLUjJf5z0NG-44" value="15" style="rounded=0;whiteSpace=wrap;html=1;" vertex="1" parent="1">
          <mxGeometry x="650" y="690" width="30" height="60" as="geometry" />
        </mxCell>
        <mxCell id="s47Vnk6pcMLUjJf5z0NG-45" value="16" style="rounded=0;whiteSpace=wrap;html=1;" vertex="1" parent="1">
          <mxGeometry x="680" y="690" width="30" height="60" as="geometry" />
        </mxCell>
      </root>
    </mxGraphModel>
  </diagram>
</mxfile>
